<svg width="51" height="50" viewBox="0 0 51 50" fill="none" xmlns="http://www.w3.org/2000/svg">
<g clip-path="url(#clip0_349_302)">
<path d="M25.9995 50C39.8066 50 50.9995 38.8071 50.9995 25C50.9995 11.1929 39.8066 0 25.9995 0C12.1924 0 0.999512 11.1929 0.999512 25C0.999512 38.8071 12.1924 50 25.9995 50Z" fill="#5B6460"/>
<path d="M29.957 25.4797H27.1886V35.9999H22.9943V25.4797H20.9995V21.7825H22.9943V19.39C22.9943 17.679 23.7778 14.9999 27.226 14.9999L30.3328 15.0134V18.6022H28.0786C27.7089 18.6022 27.1889 18.7938 27.1889 19.61V21.7859H30.3234L29.957 25.4797Z" fill="#E9ECE0"/>
</g>
<defs>
<clipPath id="clip0_349_302">
<rect width="50" height="50" fill="white" transform="translate(0.757812)"/>
</clipPath>
</defs>
</svg>
