<svg width="50" height="50" viewBox="0 0 50 50" fill="none" xmlns="http://www.w3.org/2000/svg">
<g clip-path="url(#clip0_349_306)">
<path d="M25 50C38.8071 50 50 38.8071 50 25C50 11.1929 38.8071 0 25 0C11.1929 0 0 11.1929 0 25C0 38.8071 11.1929 50 25 50Z" fill="#5B6460"/>
<g clip-path="url(#clip1_349_306)">
<path d="M24.5035 20.1083C21.5259 20.1083 19.1152 22.5216 19.1152 25.4966C19.1152 28.4742 21.5285 30.8848 24.5035 30.8848C27.4811 30.8848 29.8917 28.4716 29.8917 25.4966C29.8917 22.5189 27.4785 20.1083 24.5035 20.1083ZM24.5035 28.9939C22.5706 28.9939 21.0061 27.4286 21.0061 25.4966C21.0061 23.5646 22.5715 21.9992 24.5035 21.9992C26.4355 21.9992 28.0009 23.5646 28.0009 25.4966C28.0017 27.4286 26.4364 28.9939 24.5035 28.9939Z" fill="#E9ECE0"/>
<path d="M28.8297 15.0664C26.8977 14.9763 22.1123 14.9806 20.1786 15.0664C18.4793 15.146 16.9804 15.5564 15.7721 16.7648C13.7526 18.7843 14.0107 21.5055 14.0107 25.4964C14.0107 29.5809 13.7832 32.2391 15.7721 34.228C17.7994 36.2545 20.5601 35.9894 24.5037 35.9894C28.5497 35.9894 29.9462 35.992 31.3768 35.4381C33.3219 34.683 34.7902 32.9444 34.9337 29.8215C35.0247 27.8886 35.0194 23.1041 34.9337 21.1704C34.7604 17.484 32.7821 15.2484 28.8297 15.0664ZM31.8878 32.8919C30.5639 34.2158 28.7273 34.0976 24.4783 34.0976C20.1033 34.0976 18.3489 34.1624 17.0688 32.8788C15.5944 31.4114 15.8613 29.055 15.8613 25.4824C15.8613 20.648 15.3652 17.1664 20.2171 16.9179C21.3318 16.8785 21.6599 16.8654 24.4661 16.8654L24.5054 16.8916C29.1683 16.8916 32.8267 16.4034 33.0463 21.2544C33.0962 22.3613 33.1076 22.6938 33.1076 25.4955C33.1067 29.8198 33.1889 31.5846 31.8878 32.8919Z" fill="#E9ECE0"/>
<path d="M30.1053 21.1547C30.8007 21.1547 31.3644 20.5909 31.3644 19.8955C31.3644 19.2001 30.8007 18.6364 30.1053 18.6364C29.4099 18.6364 28.8462 19.2001 28.8462 19.8955C28.8462 20.5909 29.4099 21.1547 30.1053 21.1547Z" fill="#E9ECE0"/>
</g>
</g>
<defs>
<clipPath id="clip0_349_306">
<rect width="50" height="50" fill="white"/>
</clipPath>
<clipPath id="clip1_349_306">
<rect width="21" height="21" fill="white" transform="translate(14 15)"/>
</clipPath>
</defs>
</svg>
